<svg width="91" height="87" viewBox="0 0 91 87" fill="none" xmlns="http://www.w3.org/2000/svg">
<g clip-path="url(#clip0_517_3028)">
<mask id="mask0_517_3028" style="mask-type:alpha" maskUnits="userSpaceOnUse" x="0" y="-40" width="131" height="122">
<path d="M57.5991 16.849C58.1199 17.3346 59.2187 18.2734 60.4574 19.2103C61.694 20.1456 63.0806 21.0872 64.1744 21.5708C64.7164 21.8105 65.2118 21.9496 65.5881 21.8973C65.7818 21.8704 65.9513 21.7917 66.0741 21.6442C66.1953 21.4985 66.2583 21.3009 66.2706 21.0594C66.295 20.5817 66.1232 19.8845 65.7221 18.9231C65.319 17.957 64.6773 16.7083 63.7441 15.1211C60.685 9.91858 56.7352 5.04417 53.1603 0.632439C52.3729 -0.339371 51.6036 -1.28873 50.866 -2.2142C48.8209 -4.78035 47.0207 -7.16134 45.7455 -9.33248C44.4687 -11.5064 43.7295 -13.4516 43.7831 -15.1494C43.8367 -16.8449 44.7398 -18.7723 46.2214 -20.5874C47.701 -22.4 49.7469 -24.0872 52.0618 -25.3025C56.6939 -27.7344 62.367 -28.2628 66.7419 -24.1878C67.8251 -23.1789 68.5662 -21.7265 69.0448 -19.9544C69.5232 -18.1827 69.7366 -16.1007 69.771 -13.8434C69.8399 -9.32824 69.1925 -4.13475 68.5369 0.635738C68.4583 1.20752 68.3796 1.77337 68.302 2.33133C67.7331 6.42028 67.2232 10.0856 67.2613 12.5547C67.2721 13.2577 67.3273 13.8697 67.4402 14.3703C67.5526 14.8689 67.7252 15.2707 67.9812 15.5394C68.2434 15.8145 68.5833 15.9396 68.9977 15.899C69.4042 15.8593 69.8784 15.6611 70.4277 15.3048C71.5358 14.586 72.5882 13.3077 73.5976 11.6271C74.6083 9.94413 75.5829 7.84569 76.5308 5.47295C78.4265 0.727707 80.2212 -5.13046 81.9854 -10.9879C82.1176 -11.4266 82.2495 -11.8652 82.3813 -12.3034C84.0105 -17.7194 85.6183 -23.0641 87.2625 -27.4662C88.1511 -29.8451 89.0489 -31.9449 89.9647 -33.6295C90.882 -35.3171 91.8104 -36.575 92.755 -37.2839C96.5669 -40.1443 103.05 -39.6695 108.277 -36.4432C113.491 -33.2246 117.416 -27.2877 116.124 -19.2791C115.478 -15.2757 113.285 -11.3263 110.316 -7.59968C107.347 -3.87415 103.61 -0.380371 99.8897 2.71178C96.3135 5.68393 92.7562 8.2821 89.9152 10.3571C89.8007 10.4407 89.6874 10.5235 89.5753 10.6054C88.129 11.662 86.8823 12.5768 85.9364 13.3267C85.4634 13.7017 85.0638 14.037 84.7511 14.3293C84.4403 14.6198 84.2078 14.8749 84.0765 15.0894C83.591 15.8823 83.1346 16.7033 82.9141 17.4489C82.6939 18.1936 82.699 18.9017 83.1954 19.4241C83.6817 19.9358 84.6056 20.2291 86.1111 20.2502C87.6239 20.2713 89.7568 20.0178 92.7012 19.3979C98.2123 18.2376 101.98 15.1886 105.228 12.5595C105.468 12.3651 105.706 12.173 105.941 11.9842C109.366 9.23162 112.265 7.19146 116.215 8.53858C120.221 9.90483 125.856 13.5857 128.836 17.8263C130.325 19.9454 131.139 22.1859 130.779 24.3373C130.42 26.4839 128.887 28.5791 125.6 30.397C122.328 32.207 117.705 32.5364 112.565 32.1429C107.43 31.7499 101.807 30.638 96.5477 29.5885L96.2752 29.5341C91.1259 28.5063 86.3362 27.5503 82.7394 27.4164C80.9103 27.3484 79.3721 27.4918 78.247 27.9579C77.1119 28.4282 76.3932 29.23 76.2295 30.4589C76.0654 31.6906 76.6673 32.9577 77.8003 34.2344C78.9354 35.5134 80.6226 36.8237 82.679 38.148C86.7926 40.7972 92.4139 43.521 98.1346 46.1748C99.463 46.791 100.797 47.4034 102.118 48.0103C106.493 50.019 110.736 51.9672 114.218 53.7923C116.485 54.9805 118.423 56.1138 119.863 57.1744C120.583 57.7047 121.175 58.2146 121.62 58.7019C122.066 59.19 122.358 59.6488 122.488 60.0762C123.022 61.8278 122.264 63.9945 120.513 66.1393C118.767 68.2784 116.054 70.3672 112.749 71.9484C106.138 75.1109 97.1845 76.2306 88.896 71.6983C80.6645 67.1971 78.7666 58.7409 77.1631 51.5963L77.1381 51.4846C76.3366 47.9142 75.5978 44.6638 74.1435 42.4557C73.4132 41.3468 72.4989 40.4946 71.3017 39.9955C70.1054 39.4969 68.6393 39.3561 66.8134 39.648C63.1404 40.2351 60.4587 42.7824 58.3051 46.3051C56.1521 49.8268 54.5126 54.3467 52.9327 58.9182C52.774 59.3774 52.6159 59.8372 52.4579 60.2965C51.0411 64.4163 49.6355 68.5034 47.9079 71.8918C45.9866 75.66 43.6822 78.5325 40.5539 79.6319C34.2332 81.8532 26.3256 81.2282 20.0006 77.3818C13.6822 73.5393 8.93473 66.4769 8.93473 55.8004C8.93473 50.5076 12.3166 46.5228 17.2723 43.3767C22.2279 40.2307 28.7286 37.9426 34.9035 36.0386C36.6171 35.5103 38.3065 35.0113 39.9305 34.5316C44.1483 33.2857 47.925 32.1702 50.5379 31.0091C51.4445 30.6063 52.2166 30.1957 52.8213 29.7692C53.4248 29.3437 53.871 28.8958 54.1134 28.4148C54.3588 27.9279 54.3912 27.4144 54.1795 26.877C53.9703 26.346 53.5262 25.7997 52.8358 25.2286C50.0856 22.9535 45.7705 21.2749 40.7904 19.9057C35.9276 18.5687 30.4116 17.522 25.0641 16.5072L24.6652 16.4315C19.1901 15.3923 13.9155 14.3802 9.71008 13.1162C7.6076 12.4843 5.77784 11.7909 4.32657 11.0026C2.8737 10.2134 1.81237 9.33548 1.23087 8.34057C0.0552182 6.32912 -0.142781 3.58903 0.490726 0.664349C1.12371 -2.25789 2.58389 -5.34852 4.70141 -8.04632C8.93662 -13.4421 15.7809 -17.2453 23.8675 -15.0221C31.9786 -12.7922 39.8856 -5.32837 46.0348 1.84492C49.1064 5.42809 51.734 8.93206 53.7236 11.6619C54.2368 12.366 54.7092 13.0209 55.1355 13.6119C55.5337 14.1639 55.8917 14.6603 56.2055 15.0893C56.8531 15.9747 57.3288 16.597 57.5991 16.849Z" fill="#742AD2" stroke="black" stroke-width="0.272917"/>
</mask>
<g mask="url(#mask0_517_3028)">
<rect y="-44.7677" width="131" height="131" fill="#D4D6DF"/>
<g clip-path="url(#clip1_517_3028)">
<path fill-rule="evenodd" clip-rule="evenodd" d="M108.085 44.1918L108.086 44.1884C115.761 39.9812 123.451 36.3673 131.001 33.3597V34.5375C123.334 37.6109 115.518 41.3142 107.722 45.6358L109.011 44.9285C112.883 47.9356 117.181 50.3904 121.876 52.1925C124.867 53.3409 127.917 54.1846 131.001 54.7377V55.8475C127.785 55.2829 124.605 54.4094 121.484 53.2117C116.534 51.3115 112.018 48.7035 107.969 45.5008L107.722 45.6358C100.657 49.552 94.014 53.7507 87.867 58.1304C91.0432 66.1724 92.7924 74.9687 92.7924 84.1856C92.7924 84.8703 92.7827 85.5528 92.7635 86.2327H91.6714C91.6909 85.5528 91.7007 84.8704 91.7007 84.1856C91.7007 75.2071 90.0153 66.6348 86.953 58.7864L86.7557 58.9281C74.7496 67.6096 64.6903 76.9711 57.1438 86.2327H55.7386C62.9288 77.2616 72.4491 68.2073 83.792 59.7475L84.5682 59.1717C85.2174 58.6926 85.8724 58.2154 86.5332 57.7404C80.9886 44.1846 71.3068 32.8676 59.1197 25.4686L59.0964 25.5387C54.64 39.0606 45.5866 50.7575 32.5911 57.9611C22.3693 63.6271 11.0824 65.7517 0 64.7526V63.6556C10.9054 64.657 22.0113 62.5774 32.0618 57.0063C44.8987 49.8907 53.8177 38.2965 58.1572 24.8976C48.5607 19.2917 37.4698 16.0929 25.6549 16.0929C16.5567 16.0929 7.88774 17.9898 0 21.4209V20.2318C7.90403 16.8612 16.5685 15.0012 25.6549 15.0012C37.583 15.0012 48.784 18.2065 58.4915 23.8265C63.3295 7.89587 61.7568 -10.4538 52.6854 -26.8189C51.5401 -28.8852 50.3045 -30.8669 48.9875 -32.7611C45.6543 -29.8957 41.9131 -27.3686 37.7973 -25.2715C25.4918 -19.0016 12.0449 -17.6992 0 -20.643V-21.7674C11.8624 -18.8013 25.1458 -20.0505 37.3017 -26.2442C41.3641 -28.3141 45.0538 -30.8105 48.3368 -33.6404L48.3544 -33.6561C45.3698 -37.805 41.9892 -41.5194 38.308 -44.7684H39.9406C43.3047 -41.6885 46.408 -38.2182 49.1771 -34.3817C52.6504 -37.5024 55.6449 -41.0035 58.1179 -44.7684H59.4185C56.7998 -40.6627 53.5806 -36.8542 49.8132 -33.4843C51.1777 -31.5306 52.4564 -29.4838 53.6402 -27.3482C62.9058 -10.6326 64.4739 8.13148 59.4597 24.3993C71.8801 31.8715 81.7616 43.3378 87.4472 57.0882C93.3836 52.8704 99.7757 48.8234 106.556 45.0354L107.052 44.7589L106.384 44.1968C84.847 25.7665 77.5324 -10.1237 90.1229 -44.7684H91.2852C78.4587 -9.88451 86.0715 26.2721 108.085 44.1918Z" fill="#B9BCC8"/>
</g>
</g>
</g>
<defs>
<clipPath id="clip0_517_3028">
<rect width="131" height="131" fill="white" transform="translate(0 -44.7677)"/>
</clipPath>
<clipPath id="clip1_517_3028">
<rect width="131" height="131" fill="white" transform="translate(0 -44.7677)"/>
</clipPath>
</defs>
</svg>
