<svg width="22" height="22" viewBox="0 0 22 22" fill="none" xmlns="http://www.w3.org/2000/svg">
<path d="M7.08348 17.1518H5.42765C2.89222 16.9707 1.75391 15.0217 1.75391 13.2883C1.75391 11.5549 2.89223 9.59727 5.38454 9.42479C5.73812 9.39029 6.04858 9.66626 6.07445 10.0285C6.10032 10.382 5.83302 10.6925 5.47081 10.7184C3.79777 10.8391 3.04749 12.0982 3.04749 13.2969C3.04749 14.4956 3.79777 15.7547 5.47081 15.8755H7.08348C7.43706 15.8755 7.73028 16.1687 7.73028 16.5223C7.73028 16.8759 7.43706 17.1518 7.08348 17.1518Z" fill="#D2D2D2"/>
<path d="M15.027 17.1519C15.0097 17.1519 15.0011 17.1519 14.9838 17.1519C14.6303 17.1519 14.3026 16.8587 14.3026 16.5051C14.3026 16.1343 14.5785 15.8583 14.9407 15.8583C16.0015 15.8583 16.9501 15.4875 17.6918 14.8234C19.0371 13.6506 19.1233 11.9603 18.7611 10.7702C18.3989 9.58871 17.3899 8.23475 15.6306 8.01916C15.3461 7.98466 15.1218 7.76907 15.0701 7.48448C14.7251 5.41474 13.6127 3.98316 11.9224 3.46573C10.1803 2.92242 8.14506 3.4571 6.87734 4.78518C5.64412 6.07015 5.35954 7.87255 6.07532 9.85606C6.19606 10.1924 6.02362 10.5632 5.68729 10.6839C5.35096 10.8047 4.98011 10.6322 4.85937 10.2959C3.98836 7.86392 4.38507 5.53547 5.946 3.89692C7.54142 2.22388 10.1027 1.55983 12.3018 2.2325C14.3198 2.85342 15.7427 4.51784 16.2602 6.82905C18.0195 7.22575 19.4338 8.56247 19.9943 10.408C20.6066 12.4174 20.0547 14.4871 18.5455 15.7979C17.5883 16.6603 16.3378 17.1519 15.027 17.1519Z" fill="#D2D2D2"/>
<path d="M10.9978 19.6875C9.26441 19.6875 7.64313 18.7648 6.75486 17.2728C6.66 17.1262 6.56514 16.9537 6.48752 16.764C6.19431 16.1517 6.03906 15.4532 6.03906 14.7288C6.03906 11.995 8.26403 9.77002 10.9978 9.77002C13.7316 9.77002 15.9566 11.995 15.9566 14.7288C15.9566 15.4618 15.8014 16.1517 15.4909 16.7899C15.4219 16.9537 15.327 17.1262 15.2236 17.2901C14.3525 18.7648 12.7312 19.6875 10.9978 19.6875ZM10.9978 11.0636C8.97982 11.0636 7.33265 12.7108 7.33265 14.7288C7.33265 15.2635 7.44477 15.7636 7.66036 16.2207C7.72936 16.3673 7.78971 16.4881 7.8587 16.6002C8.51412 17.7127 9.71285 18.3939 10.9892 18.3939C12.2655 18.3939 13.4642 17.7127 14.111 16.6174C14.1887 16.4881 14.2577 16.3673 14.3094 16.2466C14.5423 15.7723 14.6544 15.2721 14.6544 14.7374C14.663 12.7108 13.0158 11.0636 10.9978 11.0636Z" fill="#D2D2D2"/>
<path d="M10.5062 16.2291C10.3424 16.2291 10.1786 16.1688 10.0492 16.0394L9.19538 15.1856C8.94529 14.9355 8.94529 14.5216 9.19538 14.2715C9.44548 14.0214 9.85942 14.0214 10.1095 14.2715L10.5235 14.6854L11.9033 13.4091C12.1706 13.1676 12.576 13.1849 12.8174 13.4436C13.0589 13.7023 13.0417 14.1163 12.783 14.3577L10.9461 16.0567C10.8167 16.1688 10.6615 16.2291 10.5062 16.2291Z" fill="#D2D2D2"/>
</svg>
