<svg width="36" height="36" viewBox="0 0 36 36" fill="none" xmlns="http://www.w3.org/2000/svg">
<circle cx="18" cy="18" r="17.1277" fill="white" stroke="#CBD0DC" stroke-width="0.744681"/>
<path d="M14.7541 23.2371H13.3839C11.2857 23.0872 10.3438 21.4743 10.3438 20.0399C10.3438 18.6055 11.2857 16.9855 13.3482 16.8427C13.6408 16.8142 13.8977 17.0426 13.9191 17.3423C13.9405 17.6349 13.7193 17.8918 13.4196 17.9132C12.0351 18.0131 11.4142 19.0551 11.4142 20.047C11.4142 21.039 12.0351 22.081 13.4196 22.1809H14.7541C15.0467 22.1809 15.2894 22.4235 15.2894 22.7161C15.2894 23.0087 15.0467 23.2371 14.7541 23.2371Z" fill="#292D32"/>
<path d="M21.328 23.2371C21.3137 23.2371 21.3066 23.2371 21.2923 23.2371C20.9997 23.2371 20.7285 22.9944 20.7285 22.7018C20.7285 22.395 20.9569 22.1666 21.2566 22.1666C22.1344 22.1666 22.9194 21.8597 23.5332 21.3102C24.6465 20.3397 24.7178 18.9409 24.4181 17.9561C24.1184 16.9784 23.2834 15.8579 21.8275 15.6795C21.592 15.651 21.4065 15.4725 21.3637 15.237C21.0782 13.5243 20.1576 12.3396 18.7588 11.9114C17.3173 11.4618 15.633 11.9043 14.584 13.0033C13.5634 14.0667 13.3279 15.5582 13.9203 17.1996C14.0202 17.4779 13.8775 17.7848 13.5992 17.8847C13.3208 17.9846 13.0139 17.8419 12.914 17.5635C12.1932 15.551 12.5215 13.6242 13.8132 12.2682C15.1335 10.8838 17.253 10.3342 19.0729 10.8909C20.7428 11.4047 21.9203 12.7821 22.3485 14.6947C23.8043 15.0229 24.9748 16.1291 25.4386 17.6563C25.9453 19.3191 25.4886 21.0319 24.2397 22.1167C23.4475 22.8303 22.4127 23.2371 21.328 23.2371Z" fill="#292D32"/>
<path d="M17.9941 25.3354C16.5597 25.3354 15.218 24.5718 14.483 23.3372C14.4045 23.2159 14.326 23.0731 14.2617 22.9161C14.0191 22.4094 13.8906 21.8314 13.8906 21.2319C13.8906 18.9696 15.7318 17.1284 17.9941 17.1284C20.2564 17.1284 22.0976 18.9696 22.0976 21.2319C22.0976 21.8385 21.9692 22.4094 21.7123 22.9375C21.6552 23.0731 21.5767 23.2159 21.491 23.3515C20.7703 24.5718 19.4286 25.3354 17.9941 25.3354ZM17.9941 18.1989C16.3242 18.1989 14.9611 19.562 14.9611 21.2319C14.9611 21.6744 15.0539 22.0883 15.2323 22.4665C15.2894 22.5879 15.3393 22.6878 15.3964 22.7805C15.9388 23.7012 16.9308 24.2649 17.987 24.2649C19.0432 24.2649 20.0352 23.7012 20.5704 22.7948C20.6346 22.6878 20.6918 22.5879 20.7346 22.4879C20.9273 22.0954 21.02 21.6815 21.02 21.2391C21.0271 19.562 19.6641 18.1989 17.9941 18.1989Z" fill="#292D32"/>
<path d="M17.5876 22.4735C17.452 22.4735 17.3165 22.4236 17.2094 22.3165L16.5029 21.61C16.2959 21.4031 16.2959 21.0605 16.5029 20.8536C16.7098 20.6466 17.0524 20.6466 17.2593 20.8536L17.6019 21.1961L18.7438 20.1399C18.965 19.9401 19.3004 19.9543 19.5002 20.1684C19.7 20.3825 19.6858 20.7251 19.4717 20.9249L17.9516 22.3308C17.8446 22.4236 17.7161 22.4735 17.5876 22.4735Z" fill="#292D32"/>
</svg>
