<svg width="217" height="55" viewBox="0 0 217 55" fill="none" xmlns="http://www.w3.org/2000/svg">
<rect width="217" height="55" rx="27.5" fill="white"/>
<rect x="0.5" y="0.5" width="216" height="54" rx="27" stroke="#8FA7DF" stroke-opacity="0.5"/>
<g opacity="0.5">
<rect x="58" y="23" width="5" height="10" rx="2.5" fill="#8FA7DF"/>
<rect x="66" y="17" width="5" height="22" rx="2.5" fill="#8FA7DF"/>
<rect x="74" y="15" width="5" height="26" rx="2.5" fill="#8FA7DF"/>
<rect x="82" y="17" width="5" height="22" rx="2.5" fill="#8FA7DF"/>
<rect x="90" y="23" width="5" height="10" rx="2.5" fill="#8FA7DF"/>
</g>
<g opacity="0.5">
<rect x="98" y="18.5" width="5" height="19" rx="2.5" fill="#8FA7DF"/>
<rect x="106" y="16" width="5" height="24" rx="2.5" fill="#8FA7DF"/>
<rect x="114" y="18" width="5" height="20" rx="2.5" fill="#8FA7DF"/>
<rect x="122" y="23" width="5" height="10" rx="2.5" fill="#8FA7DF"/>
</g>
<g opacity="0.5">
<rect x="130" y="17" width="5" height="22" rx="2.5" fill="#8FA7DF"/>
<rect x="138" y="15" width="5" height="26" rx="2.5" fill="#8FA7DF"/>
<rect x="146" y="17" width="5" height="22" rx="2.5" fill="#8FA7DF"/>
<rect x="154" y="23" width="5" height="10" rx="2.5" fill="#8FA7DF"/>
</g>
</svg>
