<svg width="101" height="202" viewBox="0 0 101 202" fill="none" xmlns="http://www.w3.org/2000/svg">
<path d="M0 4C0 6.20914 1.79086 8 4 8C6.20914 8 8 6.20914 8 4C8 1.79086 6.20914 0 4 0C1.79086 0 0 1.79086 0 4ZM3.25 4V7.55769H4.75V4H3.25ZM3.25 14.6731V21.7885H4.75V14.6731H3.25ZM3.25 28.9038V36.0192H4.75V28.9038H3.25ZM3.25 43.1346V50.25H4.75V43.1346H3.25ZM3.25 57.3654V64.4808H4.75V57.3654H3.25ZM3.25 71.5961V78.7115H4.75V71.5961H3.25ZM3.25 85.8269V92.9423H4.75V85.8269H3.25ZM3.25 100.058V107.173H4.75V100.058H3.25ZM3.25 114.288V121.404H4.75V114.288H3.25ZM3.25 128.519V135.635H4.75V128.519H3.25ZM3.25 142.75V149.865H4.75V142.75H3.25ZM3.25 156.981V164.096H4.75V156.981H3.25ZM3.25 171.212V178.327H4.75V171.212H3.25ZM3.25 185.442V189H4.75V185.442H3.25ZM3.25 189C3.25 190.727 3.59394 192.376 4.21777 193.881L5.60336 193.306C5.05373 191.981 4.75 190.527 4.75 189H3.25ZM11.1193 200.782C12.6236 201.406 14.2726 201.75 16 201.75V200.25C14.4732 200.25 13.0193 199.946 11.6938 199.397L11.1193 200.782ZM16 201.75H19.5417V200.25H16V201.75ZM26.625 201.75H33.7083V200.25H26.625V201.75ZM40.7917 201.75H47.875V200.25H40.7917V201.75ZM54.9583 201.75H62.0417V200.25H54.9583V201.75ZM69.125 201.75H76.2083V200.25H69.125V201.75ZM83.2917 201.75H90.375V200.25H83.2917V201.75ZM97.4583 201.75H101V200.25H97.4583V201.75Z" fill="#8FA7DF"/>
</svg>
