<svg width="55" height="55" viewBox="0 0 55 55" fill="none" xmlns="http://www.w3.org/2000/svg">
<rect x="0.5" y="0.5" width="54" height="54" rx="27" fill="white"/>
<rect x="0.5" y="0.5" width="54" height="54" rx="27" stroke="#8FA7DF"/>
<path d="M28 30C29.66 30 30.99 28.66 30.99 27L31 21C31 19.34 29.66 18 28 18C26.34 18 25 19.34 25 21V27C25 28.66 26.34 30 28 30ZM33.3 27C33.3 30 30.76 32.1 28 32.1C25.24 32.1 22.7 30 22.7 27H21C21 30.41 23.72 33.23 27 33.72V37H29V33.72C32.28 33.24 35 30.42 35 27H33.3Z" fill="#8FA7DF"/>
</svg>
