<svg width="378" height="235" viewBox="0 0 378 235" fill="none" xmlns="http://www.w3.org/2000/svg">
<g opacity="0.2" filter="url(#filter0_f_406_783)">
<rect width="372" height="229" transform="translate(3 3)" fill="url(#paint0_linear_406_783)"/>
<circle cx="7" cy="7" r="4" fill="#D0D1C4"/>
<circle cx="20" cy="7" r="4" fill="#D0D1C4"/>
<circle cx="33" cy="7" r="4" fill="#D0D1C4"/>
<circle cx="46" cy="7" r="4" fill="#D0D1C4"/>
<circle cx="59" cy="7" r="4" fill="#D0D1C4"/>
<circle cx="72" cy="7" r="4" fill="#D0D1C4"/>
<circle cx="85" cy="7" r="4" fill="#D0D1C4"/>
<circle cx="98" cy="7" r="4" fill="#D0D1C4"/>
<circle cx="111" cy="7" r="4" fill="#D0D1C4"/>
<circle cx="124" cy="7" r="4" fill="#D0D1C4"/>
<circle cx="137" cy="7" r="4" fill="#D0D1C4"/>
<circle cx="150" cy="7" r="4" fill="#D0D1C4"/>
<circle cx="163" cy="7" r="4" fill="#D0D1C4"/>
<circle cx="176" cy="7" r="4" fill="#D0D1C4"/>
<circle cx="189" cy="7" r="4" fill="#D0D1C4"/>
<circle cx="202" cy="7" r="4" fill="#D0D1C4"/>
<circle cx="215" cy="7" r="4" fill="#D0D1C4"/>
<circle cx="228" cy="7" r="4" fill="#D0D1C4"/>
<circle cx="241" cy="7" r="4" fill="#D0D1C4"/>
<circle cx="254" cy="7" r="4" fill="#D0D1C4"/>
<circle cx="267" cy="7" r="4" fill="#D0D1C4"/>
<circle cx="280" cy="7" r="4" fill="#D0D1C4"/>
<circle cx="293" cy="7" r="4" fill="#D0D1C4"/>
<circle cx="306" cy="7" r="4" fill="#D0D1C4"/>
<circle cx="319" cy="7" r="4" fill="#D0D1C4"/>
<circle cx="332" cy="7" r="4" fill="#D0D1C4"/>
<circle cx="345" cy="7" r="4" fill="#D0D1C4"/>
<circle cx="358" cy="7" r="4" fill="#D0D1C4"/>
<circle cx="371" cy="7" r="4" fill="#D0D1C4"/>
<circle cx="7" cy="20" r="4" fill="#D0D1C4"/>
<circle cx="20" cy="20" r="4" fill="#D0D1C4"/>
<circle cx="33" cy="20" r="4" fill="#D0D1C4"/>
<circle cx="46" cy="20" r="4" fill="#D0D1C4"/>
<circle cx="59" cy="20" r="4" fill="#D0D1C4"/>
<circle cx="72" cy="20" r="4" fill="#D0D1C4"/>
<circle cx="85" cy="20" r="4" fill="#D0D1C4"/>
<circle cx="98" cy="20" r="4" fill="#D0D1C4"/>
<circle cx="111" cy="20" r="4" fill="#D0D1C4"/>
<circle cx="124" cy="20" r="4" fill="#D0D1C4"/>
<circle cx="137" cy="20" r="4" fill="#D0D1C4"/>
<circle cx="150" cy="20" r="4" fill="#D0D1C4"/>
<circle cx="163" cy="20" r="4" fill="#D0D1C4"/>
<circle cx="176" cy="20" r="4" fill="#D0D1C4"/>
<circle cx="189" cy="20" r="4" fill="#D0D1C4"/>
<circle cx="202" cy="20" r="4" fill="#D0D1C4"/>
<circle cx="215" cy="20" r="4" fill="#D0D1C4"/>
<circle cx="228" cy="20" r="4" fill="#D0D1C4"/>
<circle cx="241" cy="20" r="4" fill="#D0D1C4"/>
<circle cx="254" cy="20" r="4" fill="#D0D1C4"/>
<circle cx="267" cy="20" r="4" fill="#D0D1C4"/>
<circle cx="280" cy="20" r="4" fill="#D0D1C4"/>
<circle cx="293" cy="20" r="4" fill="#D0D1C4"/>
<circle cx="306" cy="20" r="4" fill="#D0D1C4"/>
<circle cx="319" cy="20" r="4" fill="#D0D1C4"/>
<circle cx="332" cy="20" r="4" fill="#D0D1C4"/>
<circle cx="345" cy="20" r="4" fill="#D0D1C4"/>
<circle cx="358" cy="20" r="4" fill="#D0D1C4"/>
<circle cx="371" cy="20" r="4" fill="#D0D1C4"/>
<circle cx="7" cy="33" r="4" fill="#D0D1C4"/>
<circle cx="20" cy="33" r="4" fill="#D0D1C4"/>
<circle cx="33" cy="33" r="4" fill="#D0D1C4"/>
<circle cx="46" cy="33" r="4" fill="#D0D1C4"/>
<circle cx="59" cy="33" r="4" fill="#D0D1C4"/>
<circle cx="72" cy="33" r="4" fill="#D0D1C4"/>
<circle cx="85" cy="33" r="4" fill="#D0D1C4"/>
<circle cx="98" cy="33" r="4" fill="#D0D1C4"/>
<circle cx="111" cy="33" r="4" fill="#D0D1C4"/>
<circle cx="124" cy="33" r="4" fill="#D0D1C4"/>
<circle cx="137" cy="33" r="4" fill="#D0D1C4"/>
<circle cx="150" cy="33" r="4" fill="#D0D1C4"/>
<circle cx="163" cy="33" r="4" fill="#D0D1C4"/>
<circle cx="176" cy="33" r="4" fill="#D0D1C4"/>
<circle cx="189" cy="33" r="4" fill="#D0D1C4"/>
<circle cx="202" cy="33" r="4" fill="#D0D1C4"/>
<circle cx="215" cy="33" r="4" fill="#D0D1C4"/>
<circle cx="228" cy="33" r="4" fill="#D0D1C4"/>
<circle cx="241" cy="33" r="4" fill="#D0D1C4"/>
<circle cx="254" cy="33" r="4" fill="#D0D1C4"/>
<circle cx="267" cy="33" r="4" fill="#D0D1C4"/>
<circle cx="280" cy="33" r="4" fill="#D0D1C4"/>
<circle cx="293" cy="33" r="4" fill="#D0D1C4"/>
<circle cx="306" cy="33" r="4" fill="#D0D1C4"/>
<circle cx="319" cy="33" r="4" fill="#D0D1C4"/>
<circle cx="332" cy="33" r="4" fill="#D0D1C4"/>
<circle cx="345" cy="33" r="4" fill="#D0D1C4"/>
<circle cx="358" cy="33" r="4" fill="#D0D1C4"/>
<circle cx="371" cy="33" r="4" fill="#D0D1C4"/>
<circle cx="7" cy="46" r="4" fill="#D0D1C4"/>
<circle cx="20" cy="46" r="4" fill="#D0D1C4"/>
<circle cx="33" cy="46" r="4" fill="#D0D1C4"/>
<circle cx="46" cy="46" r="4" fill="#D0D1C4"/>
<circle cx="59" cy="46" r="4" fill="#D0D1C4"/>
<circle cx="72" cy="46" r="4" fill="#D0D1C4"/>
<circle cx="85" cy="46" r="4" fill="#D0D1C4"/>
<circle cx="98" cy="46" r="4" fill="#D0D1C4"/>
<circle cx="111" cy="46" r="4" fill="#D0D1C4"/>
<circle cx="124" cy="46" r="4" fill="#D0D1C4"/>
<circle cx="137" cy="46" r="4" fill="#D0D1C4"/>
<circle cx="150" cy="46" r="4" fill="#D0D1C4"/>
<circle cx="163" cy="46" r="4" fill="#D0D1C4"/>
<circle cx="176" cy="46" r="4" fill="#D0D1C4"/>
<circle cx="189" cy="46" r="4" fill="#D0D1C4"/>
<circle cx="202" cy="46" r="4" fill="#D0D1C4"/>
<circle cx="215" cy="46" r="4" fill="#D0D1C4"/>
<circle cx="228" cy="46" r="4" fill="#D0D1C4"/>
<circle cx="241" cy="46" r="4" fill="#D0D1C4"/>
<circle cx="254" cy="46" r="4" fill="#D0D1C4"/>
<circle cx="267" cy="46" r="4" fill="#D0D1C4"/>
<circle cx="280" cy="46" r="4" fill="#D0D1C4"/>
<circle cx="293" cy="46" r="4" fill="#D0D1C4"/>
<circle cx="306" cy="46" r="4" fill="#D0D1C4"/>
<circle cx="319" cy="46" r="4" fill="#D0D1C4"/>
<circle cx="332" cy="46" r="4" fill="#D0D1C4"/>
<circle cx="345" cy="46" r="4" fill="#D0D1C4"/>
<circle cx="358" cy="46" r="4" fill="#D0D1C4"/>
<circle cx="371" cy="46" r="4" fill="#D0D1C4"/>
<circle cx="7" cy="59" r="4" fill="#D0D1C4"/>
<circle cx="20" cy="59" r="4" fill="#D0D1C4"/>
<circle cx="33" cy="59" r="4" fill="#D0D1C4"/>
<circle cx="46" cy="59" r="4" fill="#D0D1C4"/>
<circle cx="59" cy="59" r="4" fill="#D0D1C4"/>
<circle cx="72" cy="59" r="4" fill="#D0D1C4"/>
<circle cx="85" cy="59" r="4" fill="#D0D1C4"/>
<circle cx="98" cy="59" r="4" fill="#D0D1C4"/>
<circle cx="111" cy="59" r="4" fill="#D0D1C4"/>
<circle cx="124" cy="59" r="4" fill="#D0D1C4"/>
<circle cx="137" cy="59" r="4" fill="#D0D1C4"/>
<circle cx="150" cy="59" r="4" fill="#D0D1C4"/>
<circle cx="163" cy="59" r="4" fill="#D0D1C4"/>
<circle cx="176" cy="59" r="4" fill="#D0D1C4"/>
<circle cx="189" cy="59" r="4" fill="#D0D1C4"/>
<circle cx="202" cy="59" r="4" fill="#D0D1C4"/>
<circle cx="215" cy="59" r="4" fill="#D0D1C4"/>
<circle cx="228" cy="59" r="4" fill="#D0D1C4"/>
<circle cx="241" cy="59" r="4" fill="#D0D1C4"/>
<circle cx="254" cy="59" r="4" fill="#D0D1C4"/>
<circle cx="267" cy="59" r="4" fill="#D0D1C4"/>
<circle cx="280" cy="59" r="4" fill="#D0D1C4"/>
<circle cx="293" cy="59" r="4" fill="#D0D1C4"/>
<circle cx="306" cy="59" r="4" fill="#D0D1C4"/>
<circle cx="319" cy="59" r="4" fill="#D0D1C4"/>
<circle cx="332" cy="59" r="4" fill="#D0D1C4"/>
<circle cx="345" cy="59" r="4" fill="#D0D1C4"/>
<circle cx="358" cy="59" r="4" fill="#D0D1C4"/>
<circle cx="371" cy="59" r="4" fill="#D0D1C4"/>
<circle cx="7" cy="72" r="4" fill="#D0D1C4"/>
<circle cx="20" cy="72" r="4" fill="#D0D1C4"/>
<circle cx="33" cy="72" r="4" fill="#D0D1C4"/>
<circle cx="46" cy="72" r="4" fill="#D0D1C4"/>
<circle cx="59" cy="72" r="4" fill="#D0D1C4"/>
<circle cx="72" cy="72" r="4" fill="#D0D1C4"/>
<circle cx="85" cy="72" r="4" fill="#D0D1C4"/>
<circle cx="98" cy="72" r="4" fill="#D0D1C4"/>
<circle cx="111" cy="72" r="4" fill="#D0D1C4"/>
<circle cx="124" cy="72" r="4" fill="#D0D1C4"/>
<circle cx="137" cy="72" r="4" fill="#D0D1C4"/>
<circle cx="150" cy="72" r="4" fill="#D0D1C4"/>
<circle cx="163" cy="72" r="4" fill="#D0D1C4"/>
<circle cx="176" cy="72" r="4" fill="#D0D1C4"/>
<circle cx="189" cy="72" r="4" fill="#D0D1C4"/>
<circle cx="202" cy="72" r="4" fill="#D0D1C4"/>
<circle cx="215" cy="72" r="4" fill="#D0D1C4"/>
<circle cx="228" cy="72" r="4" fill="#D0D1C4"/>
<circle cx="241" cy="72" r="4" fill="#D0D1C4"/>
<circle cx="254" cy="72" r="4" fill="#D0D1C4"/>
<circle cx="267" cy="72" r="4" fill="#D0D1C4"/>
<circle cx="280" cy="72" r="4" fill="#D0D1C4"/>
<circle cx="293" cy="72" r="4" fill="#D0D1C4"/>
<circle cx="306" cy="72" r="4" fill="#D0D1C4"/>
<circle cx="319" cy="72" r="4" fill="#D0D1C4"/>
<circle cx="332" cy="72" r="4" fill="#D0D1C4"/>
<circle cx="345" cy="72" r="4" fill="#D0D1C4"/>
<circle cx="358" cy="72" r="4" fill="#D0D1C4"/>
<circle cx="371" cy="72" r="4" fill="#D0D1C4"/>
<circle cx="7" cy="85" r="4" fill="#D0D1C4"/>
<circle cx="20" cy="85" r="4" fill="#D0D1C4"/>
<circle cx="33" cy="85" r="4" fill="#D0D1C4"/>
<circle cx="46" cy="85" r="4" fill="#D0D1C4"/>
<circle cx="59" cy="85" r="4" fill="#D0D1C4"/>
<circle cx="72" cy="85" r="4" fill="#D0D1C4"/>
<circle cx="85" cy="85" r="4" fill="#D0D1C4"/>
<circle cx="98" cy="85" r="4" fill="#D0D1C4"/>
<circle cx="111" cy="85" r="4" fill="#D0D1C4"/>
<circle cx="124" cy="85" r="4" fill="#D0D1C4"/>
<circle cx="137" cy="85" r="4" fill="#D0D1C4"/>
<circle cx="150" cy="85" r="4" fill="#D0D1C4"/>
<circle cx="163" cy="85" r="4" fill="#D0D1C4"/>
<circle cx="176" cy="85" r="4" fill="#D0D1C4"/>
<circle cx="189" cy="85" r="4" fill="#D0D1C4"/>
<circle cx="202" cy="85" r="4" fill="#D0D1C4"/>
<circle cx="215" cy="85" r="4" fill="#D0D1C4"/>
<circle cx="228" cy="85" r="4" fill="#D0D1C4"/>
<circle cx="241" cy="85" r="4" fill="#D0D1C4"/>
<circle cx="254" cy="85" r="4" fill="#D0D1C4"/>
<circle cx="267" cy="85" r="4" fill="#D0D1C4"/>
<circle cx="280" cy="85" r="4" fill="#D0D1C4"/>
<circle cx="293" cy="85" r="4" fill="#D0D1C4"/>
<circle cx="306" cy="85" r="4" fill="#D0D1C4"/>
<circle cx="319" cy="85" r="4" fill="#D0D1C4"/>
<circle cx="332" cy="85" r="4" fill="#D0D1C4"/>
<circle cx="345" cy="85" r="4" fill="#D0D1C4"/>
<circle cx="358" cy="85" r="4" fill="#D0D1C4"/>
<circle cx="371" cy="85" r="4" fill="#D0D1C4"/>
<circle cx="7" cy="98" r="4" fill="#D0D1C4"/>
<circle cx="20" cy="98" r="4" fill="#D0D1C4"/>
<circle cx="33" cy="98" r="4" fill="#D0D1C4"/>
<circle cx="46" cy="98" r="4" fill="#D0D1C4"/>
<circle cx="59" cy="98" r="4" fill="#D0D1C4"/>
<circle cx="72" cy="98" r="4" fill="#D0D1C4"/>
<circle cx="85" cy="98" r="4" fill="#D0D1C4"/>
<circle cx="98" cy="98" r="4" fill="#D0D1C4"/>
<circle cx="111" cy="98" r="4" fill="#D0D1C4"/>
<circle cx="124" cy="98" r="4" fill="#D0D1C4"/>
<circle cx="137" cy="98" r="4" fill="#D0D1C4"/>
<circle cx="150" cy="98" r="4" fill="#D0D1C4"/>
<circle cx="163" cy="98" r="4" fill="#D0D1C4"/>
<circle cx="176" cy="98" r="4" fill="#D0D1C4"/>
<circle cx="189" cy="98" r="4" fill="#D0D1C4"/>
<circle cx="202" cy="98" r="4" fill="#D0D1C4"/>
<circle cx="215" cy="98" r="4" fill="#D0D1C4"/>
<circle cx="228" cy="98" r="4" fill="#D0D1C4"/>
<circle cx="241" cy="98" r="4" fill="#D0D1C4"/>
<circle cx="254" cy="98" r="4" fill="#D0D1C4"/>
<circle cx="267" cy="98" r="4" fill="#D0D1C4"/>
<circle cx="280" cy="98" r="4" fill="#D0D1C4"/>
<circle cx="293" cy="98" r="4" fill="#D0D1C4"/>
<circle cx="306" cy="98" r="4" fill="#D0D1C4"/>
<circle cx="319" cy="98" r="4" fill="#D0D1C4"/>
<circle cx="332" cy="98" r="4" fill="#D0D1C4"/>
<circle cx="345" cy="98" r="4" fill="#D0D1C4"/>
<circle cx="358" cy="98" r="4" fill="#D0D1C4"/>
<circle cx="371" cy="98" r="4" fill="#D0D1C4"/>
<circle cx="7" cy="111" r="4" fill="#D0D1C4"/>
<circle cx="20" cy="111" r="4" fill="#D0D1C4"/>
<circle cx="33" cy="111" r="4" fill="#D0D1C4"/>
<circle cx="46" cy="111" r="4" fill="#D0D1C4"/>
<circle cx="59" cy="111" r="4" fill="#D0D1C4"/>
<circle cx="72" cy="111" r="4" fill="#D0D1C4"/>
<circle cx="85" cy="111" r="4" fill="#D0D1C4"/>
<circle cx="98" cy="111" r="4" fill="#D0D1C4"/>
<circle cx="111" cy="111" r="4" fill="#D0D1C4"/>
<circle cx="124" cy="111" r="4" fill="#D0D1C4"/>
<circle cx="137" cy="111" r="4" fill="#D0D1C4"/>
<circle cx="150" cy="111" r="4" fill="#D0D1C4"/>
<circle cx="163" cy="111" r="4" fill="#D0D1C4"/>
<circle cx="176" cy="111" r="4" fill="#D0D1C4"/>
<circle cx="189" cy="111" r="4" fill="#D0D1C4"/>
<circle cx="202" cy="111" r="4" fill="#D0D1C4"/>
<circle cx="215" cy="111" r="4" fill="#D0D1C4"/>
<circle cx="228" cy="111" r="4" fill="#D0D1C4"/>
<circle cx="241" cy="111" r="4" fill="#D0D1C4"/>
<circle cx="254" cy="111" r="4" fill="#D0D1C4"/>
<circle cx="267" cy="111" r="4" fill="#D0D1C4"/>
<circle cx="280" cy="111" r="4" fill="#D0D1C4"/>
<circle cx="293" cy="111" r="4" fill="#D0D1C4"/>
<circle cx="306" cy="111" r="4" fill="#D0D1C4"/>
<circle cx="319" cy="111" r="4" fill="#D0D1C4"/>
<circle cx="332" cy="111" r="4" fill="#D0D1C4"/>
<circle cx="345" cy="111" r="4" fill="#D0D1C4"/>
<circle cx="358" cy="111" r="4" fill="#D0D1C4"/>
<circle cx="371" cy="111" r="4" fill="#D0D1C4"/>
<circle cx="7" cy="124" r="4" fill="#D0D1C4"/>
<circle cx="20" cy="124" r="4" fill="#D0D1C4"/>
<circle cx="33" cy="124" r="4" fill="#D0D1C4"/>
<circle cx="46" cy="124" r="4" fill="#D0D1C4"/>
<circle cx="59" cy="124" r="4" fill="#D0D1C4"/>
<circle cx="72" cy="124" r="4" fill="#D0D1C4"/>
<circle cx="85" cy="124" r="4" fill="#D0D1C4"/>
<circle cx="98" cy="124" r="4" fill="#D0D1C4"/>
<circle cx="111" cy="124" r="4" fill="#D0D1C4"/>
<circle cx="124" cy="124" r="4" fill="#D0D1C4"/>
<circle cx="137" cy="124" r="4" fill="#D0D1C4"/>
<circle cx="150" cy="124" r="4" fill="#D0D1C4"/>
<circle cx="163" cy="124" r="4" fill="#D0D1C4"/>
<circle cx="176" cy="124" r="4" fill="#D0D1C4"/>
<circle cx="189" cy="124" r="4" fill="#D0D1C4"/>
<circle cx="202" cy="124" r="4" fill="#D0D1C4"/>
<circle cx="215" cy="124" r="4" fill="#D0D1C4"/>
<circle cx="228" cy="124" r="4" fill="#D0D1C4"/>
<circle cx="241" cy="124" r="4" fill="#D0D1C4"/>
<circle cx="254" cy="124" r="4" fill="#D0D1C4"/>
<circle cx="267" cy="124" r="4" fill="#D0D1C4"/>
<circle cx="280" cy="124" r="4" fill="#D0D1C4"/>
<circle cx="293" cy="124" r="4" fill="#D0D1C4"/>
<circle cx="306" cy="124" r="4" fill="#D0D1C4"/>
<circle cx="319" cy="124" r="4" fill="#D0D1C4"/>
<circle cx="332" cy="124" r="4" fill="#D0D1C4"/>
<circle cx="345" cy="124" r="4" fill="#D0D1C4"/>
<circle cx="358" cy="124" r="4" fill="#D0D1C4"/>
<circle cx="371" cy="124" r="4" fill="#D0D1C4"/>
<circle cx="7" cy="137" r="4" fill="#D0D1C4"/>
<circle cx="20" cy="137" r="4" fill="#D0D1C4"/>
<circle cx="33" cy="137" r="4" fill="#D0D1C4"/>
<circle cx="46" cy="137" r="4" fill="#D0D1C4"/>
<circle cx="59" cy="137" r="4" fill="#D0D1C4"/>
<circle cx="72" cy="137" r="4" fill="#D0D1C4"/>
<circle cx="85" cy="137" r="4" fill="#D0D1C4"/>
<circle cx="98" cy="137" r="4" fill="#D0D1C4"/>
<circle cx="111" cy="137" r="4" fill="#D0D1C4"/>
<circle cx="124" cy="137" r="4" fill="#D0D1C4"/>
<circle cx="137" cy="137" r="4" fill="#D0D1C4"/>
<circle cx="150" cy="137" r="4" fill="#D0D1C4"/>
<circle cx="163" cy="137" r="4" fill="#D0D1C4"/>
<circle cx="176" cy="137" r="4" fill="#D0D1C4"/>
<circle cx="189" cy="137" r="4" fill="#D0D1C4"/>
<circle cx="202" cy="137" r="4" fill="#D0D1C4"/>
<circle cx="215" cy="137" r="4" fill="#D0D1C4"/>
<circle cx="228" cy="137" r="4" fill="#D0D1C4"/>
<circle cx="241" cy="137" r="4" fill="#D0D1C4"/>
<circle cx="254" cy="137" r="4" fill="#D0D1C4"/>
<circle cx="267" cy="137" r="4" fill="#D0D1C4"/>
<circle cx="280" cy="137" r="4" fill="#D0D1C4"/>
<circle cx="293" cy="137" r="4" fill="#D0D1C4"/>
<circle cx="306" cy="137" r="4" fill="#D0D1C4"/>
<circle cx="319" cy="137" r="4" fill="#D0D1C4"/>
<circle cx="332" cy="137" r="4" fill="#D0D1C4"/>
<circle cx="345" cy="137" r="4" fill="#D0D1C4"/>
<circle cx="358" cy="137" r="4" fill="#D0D1C4"/>
<circle cx="371" cy="137" r="4" fill="#D0D1C4"/>
<circle cx="7" cy="150" r="4" fill="#D0D1C4"/>
<circle cx="20" cy="150" r="4" fill="#D0D1C4"/>
<circle cx="33" cy="150" r="4" fill="#D0D1C4"/>
<circle cx="46" cy="150" r="4" fill="#D0D1C4"/>
<circle cx="59" cy="150" r="4" fill="#D0D1C4"/>
<circle cx="72" cy="150" r="4" fill="#D0D1C4"/>
<circle cx="85" cy="150" r="4" fill="#D0D1C4"/>
<circle cx="98" cy="150" r="4" fill="#D0D1C4"/>
<circle cx="111" cy="150" r="4" fill="#D0D1C4"/>
<circle cx="124" cy="150" r="4" fill="#D0D1C4"/>
<circle cx="137" cy="150" r="4" fill="#D0D1C4"/>
<circle cx="150" cy="150" r="4" fill="#D0D1C4"/>
<circle cx="163" cy="150" r="4" fill="#D0D1C4"/>
<circle cx="176" cy="150" r="4" fill="#D0D1C4"/>
<circle cx="189" cy="150" r="4" fill="#D0D1C4"/>
<circle cx="202" cy="150" r="4" fill="#D0D1C4"/>
<circle cx="215" cy="150" r="4" fill="#D0D1C4"/>
<circle cx="228" cy="150" r="4" fill="#D0D1C4"/>
<circle cx="241" cy="150" r="4" fill="#D0D1C4"/>
<circle cx="254" cy="150" r="4" fill="#D0D1C4"/>
<circle cx="267" cy="150" r="4" fill="#D0D1C4"/>
<circle cx="280" cy="150" r="4" fill="#D0D1C4"/>
<circle cx="293" cy="150" r="4" fill="#D0D1C4"/>
<circle cx="306" cy="150" r="4" fill="#D0D1C4"/>
<circle cx="319" cy="150" r="4" fill="#D0D1C4"/>
<circle cx="332" cy="150" r="4" fill="#D0D1C4"/>
<circle cx="345" cy="150" r="4" fill="#D0D1C4"/>
<circle cx="358" cy="150" r="4" fill="#D0D1C4"/>
<circle cx="371" cy="150" r="4" fill="#D0D1C4"/>
<circle cx="7" cy="163" r="4" fill="#D0D1C4"/>
<circle cx="20" cy="163" r="4" fill="#D0D1C4"/>
<circle cx="33" cy="163" r="4" fill="#D0D1C4"/>
<circle cx="46" cy="163" r="4" fill="#D0D1C4"/>
<circle cx="59" cy="163" r="4" fill="#D0D1C4"/>
<circle cx="72" cy="163" r="4" fill="#D0D1C4"/>
<circle cx="85" cy="163" r="4" fill="#D0D1C4"/>
<circle cx="98" cy="163" r="4" fill="#D0D1C4"/>
<circle cx="111" cy="163" r="4" fill="#D0D1C4"/>
<circle cx="124" cy="163" r="4" fill="#D0D1C4"/>
<circle cx="137" cy="163" r="4" fill="#D0D1C4"/>
<circle cx="150" cy="163" r="4" fill="#D0D1C4"/>
<circle cx="163" cy="163" r="4" fill="#D0D1C4"/>
<circle cx="176" cy="163" r="4" fill="#D0D1C4"/>
<circle cx="189" cy="163" r="4" fill="#D0D1C4"/>
<circle cx="202" cy="163" r="4" fill="#D0D1C4"/>
<circle cx="215" cy="163" r="4" fill="#D0D1C4"/>
<circle cx="228" cy="163" r="4" fill="#D0D1C4"/>
<circle cx="241" cy="163" r="4" fill="#D0D1C4"/>
<circle cx="254" cy="163" r="4" fill="#D0D1C4"/>
<circle cx="267" cy="163" r="4" fill="#D0D1C4"/>
<circle cx="280" cy="163" r="4" fill="#D0D1C4"/>
<circle cx="293" cy="163" r="4" fill="#D0D1C4"/>
<circle cx="306" cy="163" r="4" fill="#D0D1C4"/>
<circle cx="319" cy="163" r="4" fill="#D0D1C4"/>
<circle cx="332" cy="163" r="4" fill="#D0D1C4"/>
<circle cx="345" cy="163" r="4" fill="#D0D1C4"/>
<circle cx="358" cy="163" r="4" fill="#D0D1C4"/>
<circle cx="371" cy="163" r="4" fill="#D0D1C4"/>
<circle cx="7" cy="176" r="4" fill="#D0D1C4"/>
<circle cx="20" cy="176" r="4" fill="#D0D1C4"/>
<circle cx="33" cy="176" r="4" fill="#D0D1C4"/>
<circle cx="46" cy="176" r="4" fill="#D0D1C4"/>
<circle cx="59" cy="176" r="4" fill="#D0D1C4"/>
<circle cx="72" cy="176" r="4" fill="#D0D1C4"/>
<circle cx="85" cy="176" r="4" fill="#D0D1C4"/>
<circle cx="98" cy="176" r="4" fill="#D0D1C4"/>
<circle cx="111" cy="176" r="4" fill="#D0D1C4"/>
<circle cx="124" cy="176" r="4" fill="#D0D1C4"/>
<circle cx="137" cy="176" r="4" fill="#D0D1C4"/>
<circle cx="150" cy="176" r="4" fill="#D0D1C4"/>
<circle cx="163" cy="176" r="4" fill="#D0D1C4"/>
<circle cx="176" cy="176" r="4" fill="#D0D1C4"/>
<circle cx="189" cy="176" r="4" fill="#D0D1C4"/>
<circle cx="202" cy="176" r="4" fill="#D0D1C4"/>
<circle cx="215" cy="176" r="4" fill="#D0D1C4"/>
<circle cx="228" cy="176" r="4" fill="#D0D1C4"/>
<circle cx="241" cy="176" r="4" fill="#D0D1C4"/>
<circle cx="254" cy="176" r="4" fill="#D0D1C4"/>
<circle cx="267" cy="176" r="4" fill="#D0D1C4"/>
<circle cx="280" cy="176" r="4" fill="#D0D1C4"/>
<circle cx="293" cy="176" r="4" fill="#D0D1C4"/>
<circle cx="306" cy="176" r="4" fill="#D0D1C4"/>
<circle cx="319" cy="176" r="4" fill="#D0D1C4"/>
<circle cx="332" cy="176" r="4" fill="#D0D1C4"/>
<circle cx="345" cy="176" r="4" fill="#D0D1C4"/>
<circle cx="358" cy="176" r="4" fill="#D0D1C4"/>
<circle cx="371" cy="176" r="4" fill="#D0D1C4"/>
<circle cx="7" cy="189" r="4" fill="#D0D1C4"/>
<circle cx="20" cy="189" r="4" fill="#D0D1C4"/>
<circle cx="33" cy="189" r="4" fill="#D0D1C4"/>
<circle cx="46" cy="189" r="4" fill="#D0D1C4"/>
<circle cx="59" cy="189" r="4" fill="#D0D1C4"/>
<circle cx="72" cy="189" r="4" fill="#D0D1C4"/>
<circle cx="85" cy="189" r="4" fill="#D0D1C4"/>
<circle cx="98" cy="189" r="4" fill="#D0D1C4"/>
<circle cx="111" cy="189" r="4" fill="#D0D1C4"/>
<circle cx="124" cy="189" r="4" fill="#D0D1C4"/>
<circle cx="137" cy="189" r="4" fill="#D0D1C4"/>
<circle cx="150" cy="189" r="4" fill="#D0D1C4"/>
<circle cx="163" cy="189" r="4" fill="#D0D1C4"/>
<circle cx="176" cy="189" r="4" fill="#D0D1C4"/>
<circle cx="189" cy="189" r="4" fill="#D0D1C4"/>
<circle cx="202" cy="189" r="4" fill="#D0D1C4"/>
<circle cx="215" cy="189" r="4" fill="#D0D1C4"/>
<circle cx="228" cy="189" r="4" fill="#D0D1C4"/>
<circle cx="241" cy="189" r="4" fill="#D0D1C4"/>
<circle cx="254" cy="189" r="4" fill="#D0D1C4"/>
<circle cx="267" cy="189" r="4" fill="#D0D1C4"/>
<circle cx="280" cy="189" r="4" fill="#D0D1C4"/>
<circle cx="293" cy="189" r="4" fill="#D0D1C4"/>
<circle cx="306" cy="189" r="4" fill="#D0D1C4"/>
<circle cx="319" cy="189" r="4" fill="#D0D1C4"/>
<circle cx="332" cy="189" r="4" fill="#D0D1C4"/>
<circle cx="345" cy="189" r="4" fill="#D0D1C4"/>
<circle cx="358" cy="189" r="4" fill="#D0D1C4"/>
<circle cx="371" cy="189" r="4" fill="#D0D1C4"/>
<circle cx="7" cy="202" r="4" fill="#D0D1C4"/>
<circle cx="20" cy="202" r="4" fill="#D0D1C4"/>
<circle cx="33" cy="202" r="4" fill="#D0D1C4"/>
<circle cx="46" cy="202" r="4" fill="#D0D1C4"/>
<circle cx="59" cy="202" r="4" fill="#D0D1C4"/>
<circle cx="72" cy="202" r="4" fill="#D0D1C4"/>
<circle cx="85" cy="202" r="4" fill="#D0D1C4"/>
<circle cx="98" cy="202" r="4" fill="#D0D1C4"/>
<circle cx="111" cy="202" r="4" fill="#D0D1C4"/>
<circle cx="124" cy="202" r="4" fill="#D0D1C4"/>
<circle cx="137" cy="202" r="4" fill="#D0D1C4"/>
<circle cx="150" cy="202" r="4" fill="#D0D1C4"/>
<circle cx="163" cy="202" r="4" fill="#D0D1C4"/>
<circle cx="176" cy="202" r="4" fill="#D0D1C4"/>
<circle cx="189" cy="202" r="4" fill="#D0D1C4"/>
<circle cx="202" cy="202" r="4" fill="#D0D1C4"/>
<circle cx="215" cy="202" r="4" fill="#D0D1C4"/>
<circle cx="228" cy="202" r="4" fill="#D0D1C4"/>
<circle cx="241" cy="202" r="4" fill="#D0D1C4"/>
<circle cx="254" cy="202" r="4" fill="#D0D1C4"/>
<circle cx="267" cy="202" r="4" fill="#D0D1C4"/>
<circle cx="280" cy="202" r="4" fill="#D0D1C4"/>
<circle cx="293" cy="202" r="4" fill="#D0D1C4"/>
<circle cx="306" cy="202" r="4" fill="#D0D1C4"/>
<circle cx="319" cy="202" r="4" fill="#D0D1C4"/>
<circle cx="332" cy="202" r="4" fill="#D0D1C4"/>
<circle cx="345" cy="202" r="4" fill="#D0D1C4"/>
<circle cx="358" cy="202" r="4" fill="#D0D1C4"/>
<circle cx="371" cy="202" r="4" fill="#D0D1C4"/>
<circle cx="7" cy="215" r="4" fill="#D0D1C4"/>
<circle cx="20" cy="215" r="4" fill="#D0D1C4"/>
<circle cx="33" cy="215" r="4" fill="#D0D1C4"/>
<circle cx="46" cy="215" r="4" fill="#D0D1C4"/>
<circle cx="59" cy="215" r="4" fill="#D0D1C4"/>
<circle cx="72" cy="215" r="4" fill="#D0D1C4"/>
<circle cx="85" cy="215" r="4" fill="#D0D1C4"/>
<circle cx="98" cy="215" r="4" fill="#D0D1C4"/>
<circle cx="111" cy="215" r="4" fill="#D0D1C4"/>
<circle cx="124" cy="215" r="4" fill="#D0D1C4"/>
<circle cx="137" cy="215" r="4" fill="#D0D1C4"/>
<circle cx="150" cy="215" r="4" fill="#D0D1C4"/>
<circle cx="163" cy="215" r="4" fill="#D0D1C4"/>
<circle cx="176" cy="215" r="4" fill="#D0D1C4"/>
<circle cx="189" cy="215" r="4" fill="#D0D1C4"/>
<circle cx="202" cy="215" r="4" fill="#D0D1C4"/>
<circle cx="215" cy="215" r="4" fill="#D0D1C4"/>
<circle cx="228" cy="215" r="4" fill="#D0D1C4"/>
<circle cx="241" cy="215" r="4" fill="#D0D1C4"/>
<circle cx="254" cy="215" r="4" fill="#D0D1C4"/>
<circle cx="267" cy="215" r="4" fill="#D0D1C4"/>
<circle cx="280" cy="215" r="4" fill="#D0D1C4"/>
<circle cx="293" cy="215" r="4" fill="#D0D1C4"/>
<circle cx="306" cy="215" r="4" fill="#D0D1C4"/>
<circle cx="319" cy="215" r="4" fill="#D0D1C4"/>
<circle cx="332" cy="215" r="4" fill="#D0D1C4"/>
<circle cx="345" cy="215" r="4" fill="#D0D1C4"/>
<circle cx="358" cy="215" r="4" fill="#D0D1C4"/>
<circle cx="371" cy="215" r="4" fill="#D0D1C4"/>
<circle cx="7" cy="228" r="4" fill="#D0D1C4"/>
<circle cx="20" cy="228" r="4" fill="#D0D1C4"/>
<circle cx="33" cy="228" r="4" fill="#D0D1C4"/>
<circle cx="46" cy="228" r="4" fill="#D0D1C4"/>
<circle cx="59" cy="228" r="4" fill="#D0D1C4"/>
<circle cx="72" cy="228" r="4" fill="#D0D1C4"/>
<circle cx="85" cy="228" r="4" fill="#D0D1C4"/>
<circle cx="98" cy="228" r="4" fill="#D0D1C4"/>
<circle cx="111" cy="228" r="4" fill="#D0D1C4"/>
<circle cx="124" cy="228" r="4" fill="#D0D1C4"/>
<circle cx="137" cy="228" r="4" fill="#D0D1C4"/>
<circle cx="150" cy="228" r="4" fill="#D0D1C4"/>
<circle cx="163" cy="228" r="4" fill="#D0D1C4"/>
<circle cx="176" cy="228" r="4" fill="#D0D1C4"/>
<circle cx="189" cy="228" r="4" fill="#D0D1C4"/>
<circle cx="202" cy="228" r="4" fill="#D0D1C4"/>
<circle cx="215" cy="228" r="4" fill="#D0D1C4"/>
<circle cx="228" cy="228" r="4" fill="#D0D1C4"/>
<circle cx="241" cy="228" r="4" fill="#D0D1C4"/>
<circle cx="254" cy="228" r="4" fill="#D0D1C4"/>
<circle cx="267" cy="228" r="4" fill="#D0D1C4"/>
<circle cx="280" cy="228" r="4" fill="#D0D1C4"/>
<circle cx="293" cy="228" r="4" fill="#D0D1C4"/>
<circle cx="306" cy="228" r="4" fill="#D0D1C4"/>
<circle cx="319" cy="228" r="4" fill="#D0D1C4"/>
<circle cx="332" cy="228" r="4" fill="#D0D1C4"/>
<circle cx="345" cy="228" r="4" fill="#D0D1C4"/>
<circle cx="358" cy="228" r="4" fill="#D0D1C4"/>
<circle cx="371" cy="228" r="4" fill="#D0D1C4"/>
</g>
<defs>
<filter id="filter0_f_406_783" x="0" y="0" width="378" height="235" filterUnits="userSpaceOnUse" color-interpolation-filters="sRGB">
<feFlood flood-opacity="0" result="BackgroundImageFix"/>
<feBlend mode="normal" in="SourceGraphic" in2="BackgroundImageFix" result="shape"/>
<feGaussianBlur stdDeviation="1.5" result="effect1_foregroundBlur_406_783"/>
</filter>
<linearGradient id="paint0_linear_406_783" x1="186" y1="0" x2="186" y2="229" gradientUnits="userSpaceOnUse">
<stop stop-color="#C1C2B4"/>
<stop offset="1" stop-color="#999999" stop-opacity="0"/>
</linearGradient>
</defs>
</svg>
