<svg width="232" height="127" viewBox="0 0 232 127" fill="none" xmlns="http://www.w3.org/2000/svg">
<path d="M232 4C232 6.20914 230.209 8 228 8C225.791 8 224 6.20914 224 4C224 1.79086 225.791 0 228 0C230.209 0 232 1.79086 232 4ZM228.75 4V7.4375H227.25V4H228.75ZM228.75 14.3125V21.1875H227.25V14.3125H228.75ZM228.75 28.0625V34.9375H227.25V28.0625H228.75ZM228.75 41.8125V48.6875H227.25V41.8125H228.75ZM228.75 55.5625V62.4375H227.25V55.5625H228.75ZM228.75 69.3125V76.1875H227.25V69.3125H228.75ZM228.75 83.0625V89.9375H227.25V83.0625H228.75ZM228.75 96.8125V103.688H227.25V96.8125H228.75ZM228.75 110.562V114H227.25V110.562H228.75ZM228.75 114C228.75 115.727 228.406 117.376 227.782 118.881L226.397 118.306C226.946 116.981 227.25 115.527 227.25 114H228.75ZM220.881 125.782C219.376 126.406 217.727 126.75 216 126.75V125.25C217.527 125.25 218.981 124.946 220.306 124.397L220.881 125.782ZM216 126.75H212.4V125.25H216V126.75ZM205.2 126.75H198V125.25H205.2V126.75ZM190.8 126.75H183.6V125.25H190.8V126.75ZM176.4 126.75H169.2V125.25H176.4V126.75ZM162 126.75H154.8V125.25H162V126.75ZM147.6 126.75H140.4V125.25H147.6V126.75ZM133.2 126.75H126V125.25H133.2V126.75ZM118.8 126.75H111.6V125.25H118.8V126.75ZM104.4 126.75H97.2V125.25H104.4V126.75ZM90 126.75H82.8V125.25H90V126.75ZM75.6 126.75H68.4V125.25H75.6V126.75ZM61.2 126.75H54V125.25H61.2V126.75ZM46.8 126.75H39.6001V125.25H46.8V126.75ZM32.4 126.75H25.2V125.25H32.4V126.75ZM18 126.75H10.8001V125.25H18V126.75ZM3.60005 126.75H0V125.25H3.60005V126.75Z" fill="#7793D3"/>
</svg>
